<?xml version="1.0" encoding="UTF-8"?>
<svg xmlns="http://www.w3.org/2000/svg" xmlns:xlink="http://www.w3.org/1999/xlink" viewBox="0 0 148 40.76">
  <defs>
    <style>
      .cls-1 {
        fill: #8c4c14;
      }

      .cls-2 {
        fill: url(#linear-gradient-2);
      }

      .cls-3 {
        fill: #fff;
        mix-blend-mode: overlay;
      }

      .cls-4 {
        fill: url(#linear-gradient);
      }

      .cls-5 {
        isolation: isolate;
      }

      .cls-6 {
        fill: #7a3a16;
      }
    </style>
    <linearGradient id="linear-gradient" x1="15.53" y1="20.65" x2="126.02" y2="19.99" gradientUnits="userSpaceOnUse">
      <stop offset="0" stop-color="#ffdd6f"/>
      <stop offset=".09" stop-color="#f0c75e"/>
      <stop offset=".28" stop-color="#cb8f34"/>
      <stop offset=".32" stop-color="#c2822a"/>
      <stop offset=".33" stop-color="#c3842c"/>
      <stop offset=".43" stop-color="#ddaa49"/>
      <stop offset=".52" stop-color="#efc65d"/>
      <stop offset=".61" stop-color="#fbd76a"/>
      <stop offset=".67" stop-color="#ffdd6f"/>
      <stop offset=".73" stop-color="#f2ca60"/>
      <stop offset="1" stop-color="#c2822a"/>
    </linearGradient>
    <linearGradient id="linear-gradient-2" x1="36.86" y1="20.79" x2="111.13" y2="20.79" gradientUnits="userSpaceOnUse">
      <stop offset="0" stop-color="#9c5416"/>
      <stop offset=".17" stop-color="#aa631a"/>
      <stop offset=".49" stop-color="#cf8d24"/>
      <stop offset=".5" stop-color="#d18f25"/>
      <stop offset="1" stop-color="#9c5416"/>
    </linearGradient>
  </defs>
  <g class="cls-5">
    <g id="Layer_2" data-name="Layer 2">
      <g id="Layer_1-2" data-name="Layer 1">
        <g>
          <g>
            <path class="cls-4" d="M74,40.33c-.17,0-.32-.1-.39-.25-.02-.05-2.27-5.04-8.53-8.9-2.23-1.37-4.79-2.06-7.61-2.06-3.24,0-5.67.94-5.7.95-.05.02-.1.03-.16.03-.1,0-.2-.03-.27-.1-.12-.1-.17-.26-.14-.41.07-.35,1.66-8.53-4.41-9.78-.62-.13-1.24-.19-1.84-.19-4.1,0-6.22,3.09-6.24,3.12-.08.12-.22.19-.35.19-.05,0-.1,0-.15-.03-.18-.07-.3-.25-.27-.45,0-.02.25-2.09.03-4.41-.19-2.12-1.4-4.69-3.36-5.48-.82-.33-1.73-.37-3.25-.43-2.06-.08-5.17-.21-10.52-1.18C11.69,9.27,1.13,4.75.68,4.56c-.21-.09-.31-.34-.23-.55.07-.17.23-.27.4-.27.05,0,.1,0,.15.03.07.03.76.28,2.13.68.01,0,.03,0,.04,0,3.23.92,10.07,2.48,19.49,2.48.52,0,1.05,0,1.58-.01,14.29-.27,22.21-6.34,22.29-6.4.08-.06.17-.09.26-.09.03,0,.05,0,.08,0,.12.02.22.09.29.2.05.08,4.8,7.79,10.63,11.61,4.18,2.73,6.99,3.68,8.29,4.01.62.16,1.16.24,1.57.24.31,0,.45-.05.5-.07.08-.03.1-.06.1-.06h0s0-.1-.14-.34l-.09-.14c-.25-.36-.69-.79-1.1-1.21-1.12-1.12-1.4-3.7-.02-6.01,1.29-2.15,3.78-3.53,3.88-3.59.06-.04.13-.05.2-.05.1,0,.19.03.27.09.13.11.19.29.14.45-.01.03-1.02,3.48-.28,5.58.43,1.23,1.23,1.83,2.44,1.83.16,0,.3,0,.42-.02.17,0,.32.02.48.02,1.21,0,2.01-.6,2.44-1.83.74-2.1-.27-5.55-.28-5.58-.05-.17,0-.34.14-.45.08-.06.17-.09.27-.09.07,0,.14.02.2.05.11.06,2.59,1.43,3.89,3.59,1.38,2.32,1.09,4.89.04,5.95l-.09.09c-.41.41-1.37,1.38-1.31,1.67h0s.02.02.09.05c.05.02.19.07.51.07,1.56,0,5.07-1.11,9.85-4.24,5.83-3.82,10.59-11.53,10.64-11.61.06-.1.17-.17.29-.2.03,0,.05,0,.08,0,.09,0,.19.03.26.09.08.06,8,6.13,22.29,6.4.55,0,1.09.01,1.62.01,12.3,0,20.17-2.64,21.62-3.17.05-.02.1-.03.15-.03.17,0,.33.1.4.27.08.21-.02.46-.23.55-.45.19-11.01,4.71-20.15,6.39-5.35.98-8.46,1.1-10.52,1.18-1.51.06-2.43.1-3.24.43-2.04.82-3.17,3.42-3.36,5.48-.21,2.32.03,4.39.03,4.41.02.2-.09.38-.27.45-.05.02-.1.03-.15.03-.14,0-.27-.07-.35-.19-.02-.03-2.14-3.12-6.24-3.12-.6,0-1.21.06-1.84.19-6.07,1.25-4.48,9.43-4.41,9.78.03.15-.02.31-.14.41-.08.07-.18.1-.27.1-.05,0-.1,0-.16-.03-.02,0-2.46-.95-5.7-.95-2.83,0-5.39.69-7.61,2.06-6.26,3.85-8.51,8.85-8.53,8.9-.07.15-.22.25-.39.25Z"/>
            <path class="cls-6" d="M101.2.85s7.92,6.22,22.55,6.49c.55.01,1.09.02,1.63.02,12.68,0,20.68-2.8,21.76-3.19-1.23.53-11.32,4.76-20.06,6.36-9.32,1.7-11.78.8-13.84,1.64-2.07.83-3.41,3.44-3.63,5.83-.22,2.39.03,4.5.03,4.5,0,0-2.2-3.31-6.59-3.31-.6,0-1.24.06-1.92.2-5.68,1.17-5.22,7.93-4.74,10.28,0,0-2.49-.98-5.85-.98-2.36,0-5.16.48-7.83,2.13-6.47,3.98-8.7,9.09-8.7,9.09,0,0-2.23-5.11-8.7-9.09-2.67-1.65-5.47-2.13-7.83-2.13-3.37,0-5.85.98-5.85.98.48-2.35.94-9.11-4.74-10.28-.68-.14-1.32-.2-1.92-.2-4.4,0-6.59,3.31-6.59,3.31,0,0,.26-2.1.03-4.5-.21-2.39-1.56-5-3.62-5.83-2.07-.83-4.53.07-13.85-1.64C12.18,8.93,2.08,4.69.85,4.17c.27.1,1.01.36,2.16.69,0,0,.02,0,.03,0,3.36.96,10.2,2.49,19.6,2.49.52,0,1.06,0,1.6-.01,14.63-.27,22.55-6.49,22.55-6.49,0,0,4.78,7.83,10.76,11.75,3.68,2.4,6.54,3.59,8.42,4.06.69.17,1.25.25,1.67.25.3,0,.52-.04.67-.1.47-.2.43-.57.15-1.01,0,0-.03-.05-.09-.14-.3-.43-.78-.9-1.23-1.35-.95-.95-1.14-3.34.11-5.43,1.24-2.08,3.72-3.43,3.72-3.43,0,0-1.06,3.59-.27,5.84.66,1.87,2,2.11,2.84,2.11.17,0,.33-.01.45-.02.12,0,.28.02.45.02.84,0,2.19-.24,2.84-2.11.79-2.26-.27-5.84-.27-5.84,0,0,2.48,1.35,3.73,3.43,1.24,2.09,1.06,4.47.1,5.43-.95.95-2.12,2.1-1.17,2.5.15.07.38.1.68.1,1.56,0,5.06-1.02,10.08-4.31,5.98-3.92,10.77-11.75,10.77-11.75M147.14,4.17h0M70.98,5.44h0M46.8,0c-.19,0-.37.06-.53.18-.08.06-7.91,6.05-22.04,6.31-.54,0-1.06.01-1.58.01-9.37,0-16.16-1.54-19.37-2.46-.01,0-.03,0-.04-.01-1.33-.39-2.02-.64-2.09-.67-.1-.04-.2-.05-.3-.05-.34,0-.66.2-.79.53-.17.43.03.92.45,1.1.45.19,11.05,4.73,20.24,6.42,5.38.98,8.51,1.11,10.58,1.19,1.47.06,2.36.09,3.11.4,1.79.73,2.91,3.13,3.09,5.12.21,2.27-.03,4.3-.03,4.32-.05.39.18.77.55.9.1.04.2.05.29.05.28,0,.55-.14.71-.38.08-.12,2.02-2.93,5.88-2.93.57,0,1.16.06,1.75.18,2.1.43,3.46,1.8,4.03,4.07.45,1.8.33,3.87.05,5.21-.06.31.05.62.29.82.16.13.35.2.55.2.1,0,.21-.02.31-.06.02,0,2.39-.92,5.54-.92,2.75,0,5.23.67,7.39,2,6.14,3.78,8.34,8.66,8.36,8.71.14.31.44.51.78.51h0c.34,0,.64-.2.78-.51.02-.05,2.23-4.93,8.36-8.7,2.16-1.33,4.64-2,7.39-2,3.15,0,5.52.91,5.54.92.1.04.21.06.31.06.2,0,.39-.07.55-.2.24-.2.35-.52.29-.82-.27-1.34-.4-3.4.05-5.21.57-2.27,1.93-3.64,4.03-4.07.6-.12,1.19-.18,1.75-.18,3.9,0,5.87,2.9,5.88,2.93.16.24.43.38.71.38.1,0,.2-.02.29-.05.37-.14.6-.51.55-.9,0-.02-.24-2.05-.03-4.32.18-2,1.31-4.4,3.1-5.12.75-.3,1.63-.34,3.1-.4,2.07-.08,5.2-.21,10.58-1.19,9.06-1.66,19.51-6.11,20.22-6.41.32-.12.54-.43.54-.79,0-.46-.36-.84-.82-.85-.01,0-.02,0-.03,0-.05,0-.1,0-.14.01-.06,0-.11.03-.16.05-1.49.54-9.29,3.13-21.45,3.13-.53,0-1.07,0-1.61-.02-14.13-.26-21.96-6.25-22.04-6.31-.15-.12-.34-.18-.52-.18-.05,0-.1,0-.15.01-.24.04-.45.19-.58.39-.05.08-4.76,7.71-10.51,11.48-4.67,3.06-8.08,4.16-9.59,4.17.26-.34.71-.79.99-1.07l.09-.09c1.19-1.19,1.53-3.94.02-6.46-1.36-2.25-3.94-3.68-4.05-3.74-.13-.07-.27-.1-.41-.1-.19,0-.38.06-.54.19-.27.22-.38.57-.28.9.27.93.86,3.69.29,5.32-.37,1.07-1,1.55-2.03,1.55-.15,0-.28,0-.39-.02-.02,0-.04,0-.06,0s-.04,0-.06,0c-.1,0-.24.02-.39.02-.69,0-1.55-.18-2.03-1.55-.56-1.61-.01-4.29.27-5.26.03-.09.05-.19.05-.3,0-.47-.38-.85-.85-.85h0s-.03,0-.04,0h0s0,0,0,0c-.14,0-.27.05-.38.11-.25.14-2.72,1.55-4.03,3.73-1.51,2.52-1.18,5.27.02,6.47l.08.08c.37.37.75.75,1,1.08-.26,0-.72-.04-1.44-.22-1.28-.32-4.03-1.26-8.16-3.95C52.28,8.12,47.57.48,47.53.41c-.13-.21-.34-.35-.58-.39-.05,0-.1-.01-.15-.01h0Z"/>
          </g>
          <path class="cls-3" d="M65.97,16.66c-12.97-2.49-19.59-14.16-19.59-14.16C28.84,12.6,9.59,7.21,3.05,4.86c3.54,1.01,10.97,2.67,21.2,2.48,14.63-.27,22.55-6.49,22.55-6.49,0,0,4.78,7.83,10.76,11.75,3.68,2.4,6.54,3.59,8.42,4.06Z"/>
          <path class="cls-3" d="M67.58,10.93c-.48,2.39.48,4.21.79,4.72-.3-.43-.78-.9-1.23-1.35-.95-.95-1.14-3.34.11-5.43,1.24-2.08,3.72-3.43,3.72-3.43,0,0-2.83,2.66-3.4,5.49Z"/>
          <path class="cls-3" d="M82.02,16.66c12.97-2.49,19.59-14.16,19.59-14.16,17.54,10.09,36.79,4.71,43.33,2.36-3.54,1.01-10.97,2.67-21.2,2.48-14.63-.27-22.55-6.49-22.55-6.49,0,0-4.78,7.83-10.76,11.75-3.68,2.4-6.54,3.59-8.42,4.06Z"/>
          <path class="cls-3" d="M80.41,10.93c.48,2.39-.48,4.21-.79,4.72.3-.43.78-.9,1.23-1.35.95-.95,1.14-3.34-.11-5.43-1.24-2.08-3.72-3.43-3.72-3.43,0,0,2.83,2.66,3.4,5.49Z"/>
          <path class="cls-2" d="M102.98,7.56c-5.55,6.09-13.7,12.69-20.48,13.7-6.78,1.01-8.5-3.52-8.5-3.52,0,0-1.72,4.53-8.5,3.52-6.78-1.01-14.93-7.61-20.48-13.7l-8.16,2.79s3.03,1.18,4.49,2.9c1.47,1.72,1.67,3.95,1.67,3.95,0,0,5.31-1.27,9.25,1.72,3.94,2.99,3.91,7.18,3.91,7.18,0,0,5.21-.74,10.25,1.72,5.04,2.46,7.56,6.2,7.56,6.2,0,0,2.52-3.73,7.56-6.2,5.04-2.46,10.25-1.72,10.25-1.72,0,0-.03-4.19,3.91-7.18,3.94-2.99,9.25-1.72,9.25-1.72,0,0,.2-2.23,1.67-3.95,1.47-1.72,4.49-2.9,4.49-2.9l-8.16-2.79Z"/>
          <path class="cls-1" d="M111.14,10.35s-.86.33-1.89.91l-6.27-2.14c-5.55,6.08-13.7,12.68-20.48,13.7-6.78,1.01-8.5-3.52-8.5-3.52,0,0-1.72,4.53-8.5,3.52-6.77-1.01-14.93-7.62-20.48-13.7l-6.27,2.15c-1.02-.59-1.88-.92-1.88-.92l8.15-2.79c5.55,6.08,13.71,12.68,20.48,13.7,6.78,1.01,8.5-3.52,8.5-3.52,0,0,1.72,4.53,8.5,3.52,6.78-1.01,14.93-7.62,20.48-13.7l8.16,2.79Z"/>
        </g>
      </g>
    </g>
  </g>
</svg>