<?xml version="1.0" encoding="UTF-8"?>
<svg id="Layer_2" data-name="Layer 2" xmlns="http://www.w3.org/2000/svg" xmlns:xlink="http://www.w3.org/1999/xlink" viewBox="0 0 64.98 60.53">
  <defs>
    <style>
      .cls-1 {
        fill: url(#linear-gradient-8);
      }

      .cls-2 {
        fill: url(#linear-gradient-7);
      }

      .cls-3 {
        fill: url(#linear-gradient-5);
      }

      .cls-4 {
        fill: url(#linear-gradient-6);
      }

      .cls-5 {
        fill: url(#linear-gradient-9);
      }

      .cls-6 {
        fill: url(#linear-gradient-4);
      }

      .cls-7 {
        fill: url(#linear-gradient-3);
      }

      .cls-8 {
        fill: url(#linear-gradient-2);
      }

      .cls-9 {
        fill: url(#linear-gradient);
      }

      .cls-10 {
        fill: url(#linear-gradient-10);
      }

      .cls-11 {
        fill: url(#linear-gradient-11);
      }

      .cls-12 {
        fill: url(#linear-gradient-12);
      }

      .cls-13 {
        fill: url(#linear-gradient-13);
      }

      .cls-14 {
        fill: url(#linear-gradient-19);
      }

      .cls-15 {
        fill: url(#linear-gradient-14);
      }

      .cls-16 {
        fill: url(#linear-gradient-21);
      }

      .cls-17 {
        fill: url(#linear-gradient-20);
      }

      .cls-18 {
        fill: url(#linear-gradient-22);
      }

      .cls-19 {
        fill: url(#linear-gradient-23);
      }

      .cls-20 {
        fill: url(#linear-gradient-28);
      }

      .cls-21 {
        fill: url(#linear-gradient-25);
      }

      .cls-22 {
        fill: url(#linear-gradient-32);
      }

      .cls-23 {
        fill: url(#linear-gradient-31);
      }

      .cls-24 {
        fill: url(#linear-gradient-33);
      }

      .cls-25 {
        fill: url(#linear-gradient-30);
      }

      .cls-26 {
        fill: url(#linear-gradient-15);
      }

      .cls-27 {
        fill: url(#linear-gradient-16);
      }

      .cls-28 {
        fill: url(#linear-gradient-17);
      }

      .cls-29 {
        fill: url(#linear-gradient-18);
      }

      .cls-30 {
        fill: url(#linear-gradient-35);
      }

      .cls-31 {
        fill: url(#linear-gradient-34);
      }

      .cls-32 {
        fill: url(#linear-gradient-36);
      }

      .cls-33 {
        fill: url(#linear-gradient-27);
      }

      .cls-34 {
        fill: url(#linear-gradient-24);
      }

      .cls-35 {
        fill: url(#linear-gradient-26);
      }

      .cls-36 {
        fill: url(#linear-gradient-29);
      }
    </style>
    <linearGradient id="linear-gradient" x1="-39.48" y1="23.27" x2="-28.2" y2="23.27" gradientTransform="translate(67.58 -2.03) rotate(-3.78)" gradientUnits="userSpaceOnUse">
      <stop offset="0" stop-color="#edac34"/>
      <stop offset=".44" stop-color="#ffe836"/>
      <stop offset=".99" stop-color="#edac34"/>
    </linearGradient>
    <linearGradient id="linear-gradient-2" x1="29.19" y1="23.84" x2="41.5" y2="23.02" gradientUnits="userSpaceOnUse">
      <stop offset="0" stop-color="#8f6115"/>
      <stop offset=".16" stop-color="#825012"/>
      <stop offset=".49" stop-color="#6d350d"/>
      <stop offset=".78" stop-color="#60240a"/>
      <stop offset="1" stop-color="#5c1f0a"/>
    </linearGradient>
    <linearGradient id="linear-gradient-3" x1="-50.63" y1="16.92" x2="-39.73" y2="16.92" xlink:href="#linear-gradient"/>
    <linearGradient id="linear-gradient-4" x1="17.64" y1="18.23" x2="29.58" y2="17.44" xlink:href="#linear-gradient-2"/>
    <linearGradient id="linear-gradient-5" x1="-59.59" y1="8.59" x2="-48.81" y2="8.59" xlink:href="#linear-gradient"/>
    <linearGradient id="linear-gradient-6" x1="8.15" y1="10.51" x2="19.96" y2="9.73" xlink:href="#linear-gradient-2"/>
    <linearGradient id="linear-gradient-7" x1="1196.61" y1="-858.4" x2="1202.19" y2="-858.4" gradientTransform="translate(1503.12 -3.12) rotate(143.48) scale(1 -1)" xlink:href="#linear-gradient"/>
    <linearGradient id="linear-gradient-8" x1="33.56" y1="21.23" x2="23.27" y2="20.57" xlink:href="#linear-gradient-2"/>
    <linearGradient id="linear-gradient-9" x1="1092.5" y1="-692.05" x2="1097.69" y2="-692.05" gradientTransform="translate(1310.43 115.42) rotate(152.21) scale(1 -1)" xlink:href="#linear-gradient"/>
    <linearGradient id="linear-gradient-10" x1="23.96" y1="14.83" x2="14.05" y2="12.65" xlink:href="#linear-gradient-2"/>
    <linearGradient id="linear-gradient-11" x1="-14.48" y1="17.98" x2="-4.19" y2="17.98" xlink:href="#linear-gradient"/>
    <linearGradient id="linear-gradient-12" x1="53.79" y1="16.9" x2="65.11" y2="16.16" xlink:href="#linear-gradient-2"/>
    <linearGradient id="linear-gradient-13" x1="-26.86" y1="23.06" x2="-15.37" y2="23.06" xlink:href="#linear-gradient"/>
    <linearGradient id="linear-gradient-14" x1="41.77" y1="22.79" x2="54.28" y2="21.96" xlink:href="#linear-gradient-2"/>
    <linearGradient id="linear-gradient-15" x1="1349.79" y1="-857.4" x2="1355.45" y2="-857.4" gradientTransform="translate(1601.55 -338.7) rotate(134.56) scale(1 -1)" xlink:href="#linear-gradient"/>
    <linearGradient id="linear-gradient-16" x1="45.38" y1="23.09" x2="37.72" y2="23.76" xlink:href="#linear-gradient-2"/>
    <linearGradient id="linear-gradient-17" x1="1325.17" y1="-851.49" x2="1332.7" y2="-851.49" gradientTransform="translate(1601.55 -338.7) rotate(134.56) scale(1 -1)" xlink:href="#linear-gradient"/>
    <linearGradient id="linear-gradient-18" x1="65.05" y1="10.46" x2="59.69" y2="10.93" xlink:href="#linear-gradient-2"/>
    <linearGradient id="linear-gradient-19" x1="1280.19" y1="-710.61" x2="1289.77" y2="-710.61" gradientTransform="translate(1499.74 -238.58) rotate(140.91) scale(1 -1)" xlink:href="#linear-gradient"/>
    <linearGradient id="linear-gradient-20" x1="59.15" y1="20.1" x2="49.42" y2="19.88" xlink:href="#linear-gradient-2"/>
    <linearGradient id="linear-gradient-21" x1="-93.81" y1="59.58" x2="-85.91" y2="59.58" gradientTransform="translate(89.86 -42.65) rotate(-5.18)" xlink:href="#linear-gradient"/>
    <linearGradient id="linear-gradient-22" x1="1.26" y1="25.2" x2="10.22" y2="24.39" xlink:href="#linear-gradient-2"/>
    <linearGradient id="linear-gradient-23" x1="-146.24" y1="61.9" x2="-138.33" y2="61.9" gradientTransform="translate(138.49 -43.42) rotate(-8.45)" xlink:href="#linear-gradient"/>
    <linearGradient id="linear-gradient-24" x1="2.4" y1="39.39" x2="11.3" y2="38.06" xlink:href="#linear-gradient-2"/>
    <linearGradient id="linear-gradient-25" x1="768.16" y1="-2928.55" x2="773.93" y2="-2928.55" gradientTransform="translate(457 -2963.38) rotate(23.31) scale(1 -1)" xlink:href="#linear-gradient"/>
    <linearGradient id="linear-gradient-26" x1="3.68" y1="26.4" x2="8.44" y2="35.94" xlink:href="#linear-gradient-2"/>
    <linearGradient id="linear-gradient-27" x1="-146.83" y1="77.43" x2="-138.93" y2="77.43" gradientTransform="translate(138.49 -43.42) rotate(-8.45)" xlink:href="#linear-gradient"/>
    <linearGradient id="linear-gradient-28" x1="4.1" y1="54.84" x2="12.99" y2="53.52" xlink:href="#linear-gradient-2"/>
    <linearGradient id="linear-gradient-29" x1="775.84" y1="-2942.08" x2="781.61" y2="-2942.08" gradientTransform="translate(457 -2963.38) rotate(23.31) scale(1 -1)" xlink:href="#linear-gradient"/>
    <linearGradient id="linear-gradient-30" x1="5.38" y1="41.86" x2="10.14" y2="51.4" xlink:href="#linear-gradient-2"/>
    <linearGradient id="linear-gradient-31" x1="-93.81" y1="46.35" x2="-85.91" y2="46.35" gradientTransform="translate(89.86 -42.65) rotate(-5.18)" xlink:href="#linear-gradient"/>
    <linearGradient id="linear-gradient-32" x1=".07" y1="12.02" x2="9.02" y2="11.21" xlink:href="#linear-gradient-2"/>
    <linearGradient id="linear-gradient-33" x1="761.89" y1="-2916.23" x2="767.66" y2="-2916.23" gradientTransform="translate(457 -2963.38) rotate(23.31) scale(1 -1)" xlink:href="#linear-gradient"/>
    <linearGradient id="linear-gradient-34" x1="2.79" y1="12.61" x2="7.55" y2="22.14" xlink:href="#linear-gradient-2"/>
    <linearGradient id="linear-gradient-35" x1="756.25" y1="-2905.86" x2="762.03" y2="-2905.86" gradientTransform="translate(457 -2963.38) rotate(23.31) scale(1 -1)" xlink:href="#linear-gradient"/>
    <linearGradient id="linear-gradient-36" x1="1.73" y1=".84" x2="6.49" y2="10.38" xlink:href="#linear-gradient-2"/>
  </defs>
  <g id="Layer_1-2" data-name="Layer 1">
    <g>
      <g>
        <g>
          <path class="cls-9" d="M31.69,26.04c1.66.66,3.39,1.28,5.19,1.76.91.24,1.83.11,2.53-.29.7-.4,1.17-1.06,1.3-1.85l.26-1.64c.12-.79-.08-1.56-.47-2.17-.39-.61-.97-1.07-1.69-1.26-1.44-.38-2.88-.89-4.33-1.47-1.45-.58-3.19.04-3.86,1.5l-.68,1.51c-.67,1.45.08,3.24,1.76,3.92ZM38.43,22.02c.74.2,1.21.94,1.05,1.71l-.35,1.62c-.16.77-1,1.24-1.86,1.01-1.73-.46-3.4-1.05-5.02-1.7-.8-.32-1.18-1.18-.87-1.9l.66-1.52c.31-.72,1.16-1.04,1.89-.75,1.49.6,2.99,1.13,4.5,1.53Z"/>
          <path class="cls-8" d="M33.35,18.9c.38,0,.76.07,1.12.22,1.45.58,2.89,1.09,4.33,1.47.72.19,1.3.65,1.69,1.26.39.61.59,1.38.47,2.17l-.26,1.64c-.12.79-.6,1.45-1.3,1.85-.46.27-1.02.41-1.6.41-.3,0-.61-.04-.92-.12-1.81-.48-3.53-1.09-5.19-1.76-1.68-.68-2.43-2.46-1.76-3.92l.68-1.51c.5-1.09,1.61-1.72,2.74-1.72M37.7,26.42c.69,0,1.29-.44,1.42-1.07l.35-1.62c.16-.77-.31-1.51-1.05-1.71-1.51-.4-3.01-.93-4.5-1.53-.18-.07-.37-.11-.56-.11-.56,0-1.1.32-1.33.86l-.66,1.52c-.31.72.07,1.58.87,1.9,1.62.65,3.29,1.24,5.02,1.7.15.04.29.06.44.06M33.35,18.38c-1.39,0-2.65.79-3.22,2.02l-.69,1.51c-.37.81-.39,1.72-.05,2.57.37.93,1.12,1.66,2.09,2.05,1.96.78,3.63,1.35,5.25,1.78.35.09.7.14,1.06.14.68,0,1.32-.17,1.87-.49.85-.49,1.4-1.28,1.55-2.23l.26-1.64c.14-.87-.06-1.77-.55-2.53-.49-.76-1.18-1.27-2-1.49-1.27-.34-2.67-.81-4.27-1.45-.42-.17-.86-.25-1.32-.25h0ZM37.7,25.9c-.1,0-.2-.01-.3-.04-1.53-.4-3.11-.94-4.96-1.68-.27-.11-.48-.31-.58-.56-.09-.21-.09-.44,0-.64l.66-1.53c.14-.33.48-.54.85-.54.12,0,.24.02.36.07,1.73.69,3.18,1.18,4.57,1.55.47.13.77.61.67,1.09l-.35,1.62c-.08.38-.46.65-.9.65h0Z"/>
        </g>
        <g>
          <path class="cls-7" d="M19.37,19.33c1.36,1.01,2.73,2.02,4.1,3.01,1.38,1,3.29.75,4.2-.57l.95-1.36c.91-1.32.58-3.14-.78-4.12-1.35-.98-2.69-1.96-4.02-2.94-1.33-.99-3.19-.78-4.17.49l-1.01,1.32c-.98,1.27-.66,3.15.71,4.18ZM26.97,17.49c.66.48.83,1.38.38,2.02l-.97,1.35c-.46.64-1.38.76-2.05.27-1.36-.99-2.73-1.99-4.08-2.99-.67-.5-.82-1.41-.35-2.04l1-1.32c.47-.62,1.39-.73,2.04-.24,1.34.99,2.68,1.98,4.03,2.96Z"/>
          <path class="cls-6" d="M21.96,12.72c.64,0,1.3.2,1.86.62,1.33.99,2.67,1.97,4.02,2.94,1.35.98,1.69,2.81.78,4.12l-.95,1.36c-.53.77-1.42,1.18-2.33,1.18-.64,0-1.3-.2-1.87-.61-1.37-.99-2.74-1.99-4.1-3.01-1.37-1.03-1.69-2.91-.71-4.18l1.01-1.32c.56-.73,1.42-1.11,2.3-1.11M25.24,21.43c.44,0,.87-.2,1.14-.57l.97-1.35c.45-.64.29-1.54-.38-2.02-1.35-.98-2.7-1.96-4.03-2.96-.28-.21-.6-.31-.91-.31-.43,0-.85.19-1.13.55l-1,1.32c-.47.62-.31,1.54.35,2.04,1.36,1.01,2.72,2.01,4.08,2.99.28.2.6.3.91.3M21.96,12.19c-1.09,0-2.08.48-2.72,1.32l-1.01,1.32c-.54.7-.77,1.58-.64,2.48.13.96.66,1.85,1.46,2.44,1.45,1.08,2.79,2.06,4.1,3.01.64.47,1.4.71,2.18.71,1.12,0,2.16-.53,2.77-1.41l.95-1.36c1.08-1.57.69-3.7-.9-4.85-1.35-.97-2.68-1.96-4.01-2.94-.64-.48-1.39-.73-2.18-.73h0ZM25.24,20.9c-.21,0-.42-.07-.6-.2-1.36-.99-2.72-1.98-4.08-2.99-.22-.16-.36-.41-.4-.67-.03-.23.02-.45.16-.63l1-1.32c.16-.22.42-.34.7-.34.21,0,.42.07.6.2,1.34.99,2.68,1.98,4.04,2.96.43.31.54.89.26,1.28l-.97,1.35c-.16.22-.42.35-.71.35h0Z"/>
        </g>
        <g>
          <path class="cls-3" d="M9.72,11.34c1.31,1.12,2.64,2.21,3.98,3.27,1.35,1.08,3.26.89,4.23-.38l1.01-1.31c.97-1.27.69-3.12-.59-4.15-1.29-1.02-2.55-2.06-3.79-3.11-1.25-1.05-3.1-.97-4.17.22l-1.1,1.24c-1.07,1.19-.88,3.11.44,4.23ZM17.43,9.93c.64.51.77,1.42.29,2.03l-1.02,1.31c-.48.62-1.41.7-2.06.18-1.33-1.06-2.65-2.13-3.95-3.24-.64-.54-.74-1.47-.22-2.06l1.09-1.25c.51-.59,1.43-.64,2.05-.11,1.25,1.07,2.53,2.12,3.83,3.14Z"/>
          <path class="cls-4" d="M12.55,4.91c.7,0,1.42.24,2,.74,1.24,1.06,2.51,2.09,3.79,3.11,1.29,1.03,1.57,2.88.59,4.15l-1.01,1.31c-.54.71-1.38,1.08-2.25,1.08-.68,0-1.38-.23-1.98-.7-1.34-1.06-2.67-2.15-3.98-3.27-1.33-1.12-1.51-3.05-.44-4.23l1.1-1.24c.57-.64,1.37-.96,2.17-.96M15.59,13.79c.42,0,.83-.18,1.1-.52l1.02-1.31c.48-.62.35-1.53-.29-2.03-1.3-1.03-2.58-2.07-3.83-3.14-.29-.24-.64-.36-.98-.36-.4,0-.79.16-1.06.48l-1.09,1.25c-.52.59-.42,1.52.22,2.06,1.3,1.11,2.62,2.18,3.95,3.24.29.23.63.34.97.34M12.55,4.38c-.98,0-1.92.41-2.57,1.13l-1.11,1.24c-.59.65-.88,1.52-.82,2.42.07.98.55,1.91,1.32,2.56,1.27,1.08,2.57,2.15,4,3.28.66.53,1.48.82,2.31.82,1.07,0,2.04-.47,2.67-1.29l1.01-1.31c1.14-1.49.83-3.68-.68-4.88-1.35-1.07-2.59-2.09-3.78-3.1-.66-.56-1.49-.86-2.34-.86h0ZM15.59,13.26c-.23,0-.45-.08-.64-.23-1.4-1.11-2.69-2.17-3.93-3.23-.21-.18-.35-.43-.37-.7-.02-.23.05-.45.2-.61l1.09-1.25c.16-.19.41-.29.67-.29.23,0,.46.08.64.24,1.21,1.03,2.47,2.07,3.84,3.16.41.33.5.91.2,1.29l-1.02,1.31c-.16.2-.41.32-.68.32h0Z"/>
        </g>
        <g>
          <path class="cls-2" d="M24.43,20.04c2.34,1.2,4.71,2.4,7.19,3.41.51.21,1.08-.02,1.26-.5.18-.48-.07-1.02-.56-1.22-2.38-.97-4.71-2.15-7.04-3.35-.48-.25-1.06-.08-1.29.38-.24.46-.04,1.03.45,1.27Z"/>
          <path class="cls-1" d="M24.82,18.27c.16,0,.31.04.46.11,2.34,1.2,4.66,2.37,7.04,3.35.49.2.74.74.56,1.22-.14.36-.49.58-.87.58-.13,0-.26-.03-.39-.08-2.48-1.01-4.85-2.21-7.19-3.41-.48-.25-.68-.82-.45-1.27.16-.31.49-.49.83-.49M24.82,17.75c-.55,0-1.05.3-1.3.78-.17.34-.21.73-.09,1.09.12.39.39.7.76.89,2.41,1.24,4.79,2.43,7.23,3.43.19.08.39.12.59.12.62,0,1.15-.36,1.36-.92.28-.74-.1-1.59-.85-1.89-2.35-.96-4.65-2.12-7-3.33-.22-.11-.46-.17-.7-.17h0Z"/>
        </g>
        <g>
          <path class="cls-5" d="M15.29,12.07c2.07,1.65,4.17,3.24,6.29,4.81.44.32,1.04.25,1.34-.17.3-.41.2-1.01-.24-1.33-2.11-1.56-4.19-3.14-6.24-4.77-.42-.33-1.02-.28-1.34.12-.32.4-.24,1,.19,1.34Z"/>
          <path class="cls-10" d="M15.82,10.4c.22,0,.44.07.63.22,2.05,1.63,4.13,3.21,6.24,4.77.43.32.54.91.24,1.33-.18.24-.45.37-.74.37-.21,0-.42-.07-.6-.2-2.12-1.57-4.22-3.16-6.29-4.81-.43-.34-.51-.94-.19-1.34.18-.22.44-.34.72-.34M15.82,9.87c-.44,0-.85.19-1.13.53-.24.3-.35.67-.3,1.06.05.4.25.77.58,1.02,1.89,1.5,3.96,3.08,6.31,4.82.27.2.58.3.91.3.47,0,.89-.21,1.17-.58.47-.64.32-1.57-.35-2.06-2.33-1.72-4.36-3.28-6.23-4.76-.27-.22-.61-.33-.95-.33h0Z"/>
        </g>
      </g>
      <g>
        <g>
          <path class="cls-11" d="M57.81,22.02c.83.04,1.78-.3,2.53-1.03,1.49-1.44,2.77-3.19,3.7-5.05.24-.47.35-.97.4-1.43.04-.47-.05-.92-.18-1.31-.28-.78-.91-1.34-1.67-1.56l-1.6-.45c-.78-.22-1.54-.1-2.19.16-.33.13-.6.31-.85.52-.26.2-.43.46-.58.74-.57,1.14-1.3,2.13-2.22,3.02-.46.45-.7,1.06-.76,1.76-.05.7.08,1.46.52,2.14l.92,1.38c.44.66,1.16,1.09,1.99,1.11ZM58.69,13.27c.3-.62,1.11-.93,1.84-.66l1.55.59c.74.27,1.05,1.21.64,2.07-.86,1.72-2.03,3.31-3.4,4.65-.33.34-.77.48-1.16.49-.39,0-.75-.16-1-.47l-1.04-1.29c-.24-.3-.34-.68-.33-1.03,0-.36.16-.67.4-.93,1.03-1,1.87-2.15,2.51-3.43Z"/>
          <path class="cls-12" d="M60.16,11.08c.27,0,.55.03.83.11l1.6.45c.76.21,1.39.77,1.67,1.56.14.39.22.84.18,1.31-.05.46-.15.96-.4,1.43-.93,1.86-2.21,3.61-3.7,5.05-.71.69-1.6,1.04-2.4,1.04-.05,0-.09,0-.14,0-.83-.03-1.56-.45-1.99-1.11l-.92-1.38c-.45-.67-.57-1.43-.52-2.14.06-.7.31-1.31.76-1.76.91-.89,1.65-1.89,2.22-3.02.15-.28.33-.54.58-.74.25-.21.52-.39.85-.52.42-.16.88-.27,1.36-.27M58.13,20.42s0,0,.01,0c.39,0,.83-.15,1.16-.49,1.38-1.33,2.55-2.93,3.4-4.65.42-.86.11-1.8-.64-2.07l-1.55-.59c-.18-.06-.36-.1-.54-.1-.55,0-1.07.29-1.3.76-.64,1.28-1.48,2.43-2.51,3.43-.24.26-.39.57-.4.93-.01.36.09.73.33,1.03l1.04,1.29c.24.3.6.47.99.47M60.16,10.56c-.51,0-1.03.1-1.55.31-.35.13-.67.33-1,.6-.36.28-.58.64-.71.89-.55,1.1-1.24,2.04-2.12,2.89-.53.52-.85,1.24-.92,2.09-.06.93.15,1.78.61,2.48l.92,1.38c.54.81,1.44,1.32,2.42,1.35.04,0,.1,0,.15,0,.99,0,1.99-.43,2.77-1.19,1.54-1.48,2.85-3.28,3.8-5.19.24-.46.39-.99.45-1.61.04-.51-.03-1.03-.21-1.54-.33-.92-1.08-1.63-2.03-1.89l-1.6-.45c-.32-.09-.65-.13-.98-.13h0ZM58.13,20.42v-.53c-.23,0-.43-.1-.57-.27l-1.04-1.29c-.15-.18-.22-.43-.22-.68,0-.21.09-.4.26-.58,1.05-1.02,1.93-2.22,2.6-3.55.13-.28.46-.47.82-.47.12,0,.25.02.36.06l1.54.59c.24.09.36.27.41.41.11.28.09.62-.06.94-.82,1.65-1.96,3.21-3.3,4.5-.29.3-.66.34-.8.34v.53h0Z"/>
        </g>
        <g>
          <path class="cls-13" d="M43.45,26.17c.33.24.73.43,1.17.52.44.1.92.13,1.4.04,1.93-.33,3.83-.85,5.66-1.62.92-.39,1.6-1.1,1.9-1.87.3-.78.24-1.59-.19-2.27l-.87-1.41c-.42-.68-1.08-1.14-1.74-1.36-.67-.23-1.36-.25-1.99.02-1.26.54-2.62.91-3.99,1.14-.34.07-.66.18-.95.36-.29.19-.55.41-.77.69-.44.57-.75,1.28-.73,2.09l.04,1.66c.02.8.4,1.53,1.06,2ZM49.37,19.59c.33-.15.71-.13,1.04-.01.33.12.63.36.81.71l.75,1.48c.18.35.18.74.03,1.11-.15.36-.47.67-.89.86-1.71.73-3.51,1.22-5.33,1.52-.45.08-.88-.03-1.2-.25-.32-.22-.53-.55-.57-.94l-.16-1.65c-.04-.39.09-.76.3-1.05.22-.28.53-.48.89-.55,1.48-.25,2.95-.65,4.32-1.24Z"/>
          <path class="cls-15" d="M49.78,18.03c.33,0,.67.06,1.01.18.66.22,1.31.68,1.74,1.36l.87,1.41c.42.68.49,1.48.19,2.27-.3.77-.98,1.48-1.9,1.87-1.83.77-3.73,1.3-5.66,1.62-.2.04-.4.05-.6.05-.28,0-.54-.03-.8-.09-.44-.09-.84-.28-1.17-.52-.67-.47-1.04-1.21-1.06-2l-.04-1.66c-.02-.8.29-1.52.73-2.09.22-.28.48-.5.77-.69.29-.18.61-.3.95-.36,1.37-.23,2.73-.6,3.99-1.14.32-.13.65-.2.98-.2M45.48,25.29c.1,0,.2,0,.3-.03,1.82-.31,3.61-.8,5.33-1.52.42-.19.74-.49.89-.86.15-.37.15-.76-.03-1.11l-.75-1.48c-.18-.35-.48-.59-.81-.71-.17-.06-.35-.1-.53-.1s-.35.03-.51.11c-1.37.58-2.84.99-4.32,1.24-.36.07-.67.26-.89.55-.22.28-.34.66-.3,1.04l.16,1.65c.04.39.25.72.57.94.25.17.56.28.9.28M49.78,17.5c-.42,0-.82.08-1.19.24-1.16.5-2.47.87-3.87,1.1-.43.08-.81.23-1.14.44-.37.24-.66.5-.91.81-.58.74-.87,1.58-.84,2.43l.04,1.66c.03.98.49,1.86,1.28,2.42.41.3.88.51,1.37.61.29.07.6.1.91.1.24,0,.47-.02.7-.06,2.05-.35,4-.9,5.77-1.65,1.02-.43,1.82-1.22,2.19-2.16.36-.95.28-1.92-.23-2.74l-.87-1.41c-.46-.73-1.17-1.3-2.02-1.58-.39-.14-.79-.21-1.18-.21h0ZM45.48,24.76c-.22,0-.43-.06-.6-.18-.2-.14-.32-.34-.34-.56l-.16-1.65c-.02-.23.05-.48.2-.67.14-.18.34-.3.57-.35,1.59-.27,3.09-.7,4.43-1.27.1-.04.2-.07.3-.07s.23.02.35.06c.22.08.41.25.52.46l.75,1.48c.1.2.11.44.01.67-.1.24-.32.45-.62.58-1.58.67-3.34,1.17-5.2,1.49-.08.01-.14.02-.21.02h0Z"/>
        </g>
        <g>
          <path class="cls-26" d="M38.91,24.59c1.83.02,3.69-.19,5.48-.61.37-.08.56-.58.42-1.07-.14-.5-.51-.82-.85-.74-1.66.38-3.33.58-5.05.56-.35,0-.65.41-.66.92-.02.51.28.93.65.94Z"/>
          <path class="cls-27" d="M44.06,22.16c.31,0,.63.3.75.75.13.49-.05.98-.42,1.07-1.72.4-3.49.61-5.25.61-.08,0-.16,0-.23,0-.38,0-.67-.43-.65-.94.02-.51.31-.92.66-.92h0c.07,0,.15,0,.22,0,1.64,0,3.24-.2,4.83-.56.03,0,.07-.01.1-.01M44.06,21.64h0c-.07,0-.14,0-.21.02-1.58.36-3.17.55-4.71.55h-.21c-.65,0-1.17.63-1.2,1.43-.01.44.13.85.4,1.13.21.22.49.35.77.35h.24c1.77,0,3.58-.21,5.37-.62.28-.06.52-.24.68-.5.21-.34.26-.78.14-1.22-.18-.67-.7-1.14-1.26-1.14h0Z"/>
        </g>
        <g>
          <path class="cls-28" d="M62.23,14.09c1.25-2.48,1.93-3.63,2.05-6.33.03-.56-.39-1.01-.9-1.02-.52,0-.92.41-.96.93-.11,2.52-.75,3.39-1.85,5.58-.23.44-.06,1.01.37,1.27.45.27,1.02.07,1.29-.43Z"/>
          <path class="cls-29" d="M63.37,6.75h.01c.51,0,.93.46.9,1.02-.11,2.7-.8,3.85-2.05,6.33-.19.35-.52.56-.86.56-.15,0-.3-.04-.43-.12-.43-.26-.6-.83-.37-1.27,1.1-2.19,1.74-3.06,1.85-5.58.03-.51.43-.93.95-.93M63.37,6.22c-.78,0-1.42.63-1.47,1.42-.09,2.06-.54,2.93-1.35,4.51-.14.27-.28.55-.44.86-.36.67-.11,1.55.56,1.96.21.13.46.2.71.2.54,0,1.05-.32,1.32-.84l.29-.57c1.07-2.11,1.71-3.38,1.82-5.98.02-.41-.12-.82-.4-1.11-.27-.29-.64-.45-1.02-.45h0s-.01,0-.01,0h0Z"/>
        </g>
        <g>
          <path class="cls-14" d="M51.13,22.73c2.62-.76,5.13-2.05,7.19-3.9.21-.19.33-.44.34-.69,0-.25-.08-.5-.27-.67-.18-.18-.42-.26-.66-.26-.24,0-.48.07-.66.24-1.82,1.64-4.07,2.81-6.47,3.5-.49.13-.8.64-.68,1.14.11.5.65.79,1.2.64Z"/>
          <path class="cls-17" d="M57.72,17.21s.01,0,.02,0c0,0,0,0,.01,0,.23,0,.46.08.64.26.18.18.28.42.27.67-.01.24-.13.49-.34.69-2.06,1.86-4.57,3.14-7.19,3.9-.1.03-.19.04-.28.04-.44,0-.82-.27-.91-.68-.12-.5.19-1.01.68-1.14,2.4-.69,4.65-1.86,6.47-3.5.18-.17.41-.24.64-.24M57.72,16.68c-.38,0-.74.14-1,.38-1.67,1.51-3.84,2.68-6.25,3.38-.77.21-1.23.98-1.05,1.76.15.64.74,1.09,1.43,1.09.14,0,.28-.02.42-.06,2.84-.82,5.4-2.21,7.41-4.02.31-.29.49-.66.52-1.05.01-.43-.14-.81-.43-1.09-.27-.26-.63-.41-1.01-.41h-.03Z"/>
        </g>
      </g>
    </g>
    <g>
      <g>
        <path class="cls-16" d="M9.73,27.19c-.08-1.75-.18-3.5-.29-5.24-.1-1.76-1.56-3.12-3.21-2.99l-1.71.13c-1.65.14-2.89,1.6-2.78,3.32.11,1.72.2,3.43.28,5.14.08,1.71,1.47,3.06,3.12,3.01l1.71-.06c1.65-.05,2.95-1.54,2.87-3.31ZM3.28,22.32c-.05-.84.56-1.57,1.37-1.63l1.71-.11c.81-.05,1.51.6,1.56,1.46.11,1.74.2,3.48.28,5.22.04.86-.59,1.58-1.4,1.62l-1.71.07c-.81.03-1.49-.63-1.53-1.47-.08-1.72-.18-3.44-.28-5.16Z"/>
        <path class="cls-18" d="M6.47,18.95c1.55,0,2.88,1.32,2.98,3,.11,1.74.2,3.49.29,5.24.08,1.77-1.21,3.26-2.87,3.31l-1.71.06s-.06,0-.09,0c-1.61,0-2.95-1.33-3.03-3.01-.08-1.71-.17-3.42-.28-5.14-.1-1.72,1.14-3.19,2.78-3.32l1.71-.13c.08,0,.15,0,.23,0M5.03,28.95s.04,0,.06,0l1.71-.07c.81-.03,1.44-.76,1.4-1.62-.08-1.74-.18-3.49-.28-5.22-.05-.82-.7-1.46-1.47-1.46-.03,0-.06,0-.09,0l-1.71.11c-.81.05-1.42.78-1.37,1.63.11,1.72.2,3.44.28,5.16.04.82.69,1.47,1.47,1.47M6.47,18.41c-.09,0-.18,0-.27.01l-1.71.13c-1.96.16-3.41,1.88-3.29,3.9.1,1.64.19,3.32.28,5.13.09,1.98,1.66,3.53,3.58,3.53h.11s1.71-.06,1.71-.06c.91-.03,1.77-.42,2.4-1.11.68-.73,1.04-1.74.99-2.77-.09-1.86-.18-3.58-.29-5.25-.11-1.97-1.66-3.51-3.53-3.51h0ZM5.03,28.41c-.5,0-.91-.42-.93-.95-.09-1.84-.18-3.53-.28-5.17-.03-.54.35-1.01.86-1.05l1.71-.11h.06c.49,0,.89.41.92.95.1,1.66.2,3.41.28,5.22.01.28-.09.56-.27.76-.16.18-.38.28-.6.29l-1.71.07h-.03Z"/>
      </g>
      <g>
        <path class="cls-19" d="M10.97,40.89c-.18-1.75-.38-3.49-.59-5.22-.2-1.75-1.73-3.03-3.37-2.8l-1.7.23c-1.64.23-2.79,1.76-2.59,3.48.2,1.71.39,3.41.57,5.11.18,1.71,1.64,2.97,3.29,2.82l1.71-.16c1.65-.15,2.86-1.71,2.68-3.47ZM4.25,36.4c-.1-.84.47-1.6,1.27-1.7l1.7-.21c.8-.1,1.54.51,1.64,1.37.21,1.73.4,3.46.58,5.2.09.85-.5,1.62-1.3,1.69l-1.71.17c-.8.08-1.53-.54-1.61-1.38-.18-1.71-.37-3.42-.58-5.13Z"/>
        <path class="cls-34" d="M7.4,32.84c1.49,0,2.8,1.21,2.99,2.83.21,1.73.4,3.47.59,5.22.18,1.76-1.03,3.32-2.68,3.47l-1.71.16c-.09,0-.17.01-.26.01-1.54,0-2.86-1.22-3.03-2.84-.18-1.7-.37-3.4-.57-5.11-.2-1.72.95-3.25,2.59-3.48l1.7-.23c.13-.02.26-.03.38-.03M6.3,42.92s.09,0,.14,0l1.71-.17c.8-.08,1.39-.84,1.3-1.69-.18-1.74-.38-3.47-.58-5.2-.09-.79-.74-1.38-1.47-1.38-.06,0-.11,0-.17.01l-1.7.21c-.8.1-1.37.86-1.27,1.7.2,1.71.39,3.42.58,5.13.08.79.73,1.39,1.48,1.39M7.4,32.3c-.15,0-.3.01-.46.03l-1.7.23c-1.95.27-3.29,2.07-3.06,4.08.19,1.63.38,3.3.57,5.11.2,1.9,1.73,3.32,3.57,3.32.1,0,.21,0,.31-.01l1.71-.16c.91-.08,1.74-.52,2.33-1.25.64-.77.94-1.8.83-2.82-.2-1.85-.39-3.56-.59-5.23-.22-1.88-1.74-3.31-3.53-3.31h0ZM6.3,42.37c-.47,0-.88-.39-.93-.9-.19-1.83-.38-3.51-.58-5.14-.06-.54.29-1.03.8-1.09l1.7-.21s.07,0,.1,0c.47,0,.87.38.93.89.2,1.65.39,3.4.58,5.19.03.28-.05.56-.23.77-.15.19-.36.3-.59.32l-1.71.17s-.06,0-.08,0h0Z"/>
      </g>
      <g>
        <path class="cls-21" d="M7.36,35.18c-.14-2.72-.3-5.46-.68-8.2-.08-.56-.58-.95-1.1-.86-.52.09-.87.59-.8,1.13.37,2.63.53,5.32.67,8.03.03.56.48.99,1.01.96.53-.03.93-.5.91-1.06Z"/>
        <path class="cls-35" d="M5.72,26.1c.47,0,.88.36.95.88.38,2.74.54,5.48.68,8.2.03.56-.38,1.03-.91,1.06-.02,0-.03,0-.05,0-.51,0-.94-.42-.96-.96-.14-2.71-.3-5.4-.67-8.03-.07-.54.28-1.04.8-1.13.05,0,.1-.01.15-.01M5.72,25.56c-.08,0-.16,0-.24.02-.82.14-1.37.9-1.25,1.74.36,2.59.52,5.26.66,7.99.04.83.71,1.48,1.51,1.48h.07c.39-.02.76-.19,1.02-.49.28-.31.42-.72.4-1.14-.15-2.91-.31-5.54-.69-8.25-.11-.77-.75-1.35-1.49-1.35h0Z"/>
      </g>
      <g>
        <path class="cls-33" d="M12.67,56.35c-.18-1.75-.38-3.49-.59-5.22-.2-1.75-1.73-3.03-3.37-2.8l-1.7.23c-1.64.23-2.79,1.76-2.59,3.48.2,1.71.39,3.41.57,5.11.18,1.71,1.64,2.97,3.29,2.82l1.71-.16c1.65-.15,2.86-1.71,2.68-3.47ZM5.94,51.85c-.1-.84.47-1.6,1.27-1.7l1.7-.21c.8-.1,1.54.51,1.64,1.37.21,1.73.4,3.46.58,5.2.09.85-.5,1.62-1.3,1.69l-1.71.17c-.8.08-1.53-.54-1.61-1.38-.18-1.71-.37-3.42-.58-5.13Z"/>
        <path class="cls-20" d="M9.09,48.3c1.49,0,2.8,1.21,2.99,2.83.21,1.73.4,3.47.59,5.22.18,1.76-1.03,3.32-2.68,3.47l-1.71.16c-.09,0-.17.01-.26.01-1.54,0-2.86-1.22-3.03-2.84-.18-1.7-.37-3.4-.57-5.11-.2-1.72.95-3.25,2.59-3.48l1.7-.23c.13-.02.26-.03.38-.03M8,58.37s.09,0,.14,0l1.71-.17c.8-.08,1.39-.84,1.3-1.69-.18-1.74-.38-3.47-.58-5.2-.09-.79-.74-1.38-1.47-1.38-.06,0-.11,0-.17.01l-1.7.21c-.8.1-1.37.86-1.27,1.7.2,1.71.39,3.42.58,5.13.08.79.73,1.39,1.48,1.39M9.09,47.75c-.15,0-.3.01-.46.03l-1.7.23c-1.95.27-3.29,2.07-3.06,4.08.19,1.63.38,3.3.57,5.11.2,1.9,1.73,3.32,3.57,3.32.1,0,.21,0,.31-.01l1.71-.16c.91-.08,1.74-.52,2.33-1.25.64-.77.94-1.8.83-2.82-.2-1.85-.39-3.56-.59-5.23-.22-1.88-1.74-3.31-3.53-3.31h0ZM8,57.83c-.47,0-.88-.39-.93-.9-.19-1.83-.38-3.52-.58-5.14-.06-.54.29-1.03.8-1.09l1.7-.21s.07,0,.1,0c.47,0,.87.38.93.89.2,1.65.39,3.4.58,5.19.03.28-.05.56-.23.77-.15.19-.36.3-.59.32l-1.71.17s-.06,0-.08,0h0Z"/>
      </g>
      <g>
        <path class="cls-36" d="M9.05,50.64c-.14-2.72-.3-5.46-.68-8.2-.08-.56-.58-.95-1.1-.86-.52.09-.87.59-.8,1.13.37,2.63.53,5.32.67,8.03.03.56.48.99,1.01.96.53-.03.93-.5.91-1.06Z"/>
        <path class="cls-25" d="M7.42,41.56c.47,0,.88.36.95.88.38,2.74.54,5.48.68,8.2.03.56-.38,1.03-.91,1.06-.02,0-.03,0-.05,0-.51,0-.94-.42-.96-.96-.14-2.71-.3-5.4-.67-8.03-.07-.54.28-1.04.8-1.13.05,0,.1-.01.15-.01M7.42,41.02c-.08,0-.16,0-.24.02-.82.14-1.37.9-1.25,1.74.36,2.59.52,5.26.66,7.99.04.83.71,1.48,1.51,1.48h.07c.39-.02.76-.19,1.02-.49.28-.31.42-.72.4-1.14-.15-2.91-.31-5.54-.69-8.25-.11-.77-.75-1.35-1.49-1.35h0Z"/>
      </g>
      <g>
        <path class="cls-23" d="M8.54,14.01c-.08-1.75-.18-3.5-.29-5.24-.1-1.76-1.56-3.12-3.21-2.99l-1.71.13c-1.65.14-2.89,1.6-2.78,3.32.11,1.72.2,3.43.28,5.14.08,1.71,1.47,3.06,3.12,3.01l1.71-.06c1.65-.05,2.95-1.54,2.87-3.31ZM2.08,9.14c-.05-.84.56-1.57,1.37-1.63l1.71-.11c.81-.05,1.51.6,1.56,1.46.11,1.74.2,3.48.28,5.22.04.86-.59,1.58-1.4,1.62l-1.71.07c-.81.03-1.49-.63-1.53-1.47-.08-1.72-.18-3.44-.28-5.16Z"/>
        <path class="cls-22" d="M5.27,5.77c1.55,0,2.88,1.32,2.98,3,.11,1.74.2,3.49.29,5.24.08,1.77-1.21,3.26-2.87,3.31l-1.71.06s-.06,0-.09,0c-1.61,0-2.95-1.33-3.03-3.01-.08-1.71-.17-3.42-.28-5.14-.1-1.72,1.14-3.19,2.78-3.32l1.71-.13c.08,0,.15,0,.23,0M3.84,15.77s.04,0,.06,0l1.71-.07c.81-.03,1.44-.76,1.4-1.62-.08-1.74-.18-3.49-.28-5.22-.05-.82-.7-1.46-1.47-1.46-.03,0-.06,0-.09,0l-1.71.11c-.81.05-1.42.78-1.37,1.63.11,1.72.2,3.44.28,5.16.04.82.69,1.47,1.47,1.47M5.27,5.23c-.09,0-.18,0-.27.01l-1.71.13C1.33,5.53-.11,7.25,0,9.27c.1,1.64.19,3.32.28,5.13.09,1.98,1.66,3.53,3.58,3.53h.11s1.71-.06,1.71-.06c.91-.03,1.77-.42,2.4-1.11.68-.73,1.04-1.74.99-2.77-.09-1.86-.18-3.58-.29-5.25-.11-1.97-1.66-3.51-3.53-3.51h0ZM3.84,15.23c-.5,0-.91-.42-.93-.95-.09-1.84-.18-3.53-.28-5.17-.03-.54.35-1.01.86-1.05l1.71-.11h.06c.49,0,.89.41.92.95.1,1.66.2,3.42.28,5.22.01.28-.09.56-.27.76-.16.18-.38.28-.6.29l-1.71.07h-.03Z"/>
      </g>
      <g>
        <path class="cls-24" d="M6.47,21.38c-.14-2.72-.3-5.46-.68-8.2-.08-.56-.58-.95-1.1-.86-.52.09-.87.59-.8,1.13.37,2.63.53,5.32.67,8.03.03.56.48.99,1.01.96.53-.03.93-.5.91-1.06Z"/>
        <path class="cls-31" d="M4.83,12.31c.47,0,.88.36.95.88.38,2.74.54,5.48.68,8.2.03.56-.38,1.03-.91,1.06-.02,0-.03,0-.05,0-.51,0-.94-.42-.96-.96-.14-2.71-.3-5.4-.67-8.03-.07-.54.28-1.04.8-1.13.05,0,.1-.01.15-.01M4.83,11.76c-.08,0-.16,0-.24.02-.82.14-1.37.9-1.25,1.74.36,2.59.52,5.26.66,7.99.04.83.71,1.48,1.51,1.48h.07c.39-.02.76-.19,1.02-.49.28-.31.42-.72.4-1.14-.15-2.8-.31-5.54-.69-8.25-.11-.77-.75-1.35-1.49-1.35h0Z"/>
      </g>
      <g>
        <path class="cls-30" d="M5.4,9.62c-.14-2.72-.3-5.46-.68-8.2-.08-.56-.58-.95-1.1-.86-.52.09-.87.59-.8,1.13.37,2.63.53,5.32.67,8.03.03.56.48.99,1.01.96.53-.03.93-.5.91-1.06Z"/>
        <path class="cls-32" d="M3.77.55c.47,0,.88.36.95.88.38,2.74.54,5.48.68,8.2.03.56-.38,1.03-.91,1.06-.02,0-.03,0-.05,0-.51,0-.94-.42-.96-.96-.14-2.71-.3-5.4-.67-8.03-.07-.54.28-1.04.8-1.13.05,0,.1-.01.15-.01M3.77,0c-.08,0-.16,0-.24.02-.82.14-1.37.9-1.25,1.74.36,2.59.52,5.26.66,7.99.04.83.71,1.48,1.51,1.48h.07c.39-.02.76-.19,1.02-.49.28-.31.42-.72.4-1.14-.15-2.91-.31-5.54-.69-8.25-.11-.77-.75-1.35-1.49-1.35h0Z"/>
      </g>
    </g>
  </g>
</svg>